name C:\Users\u0101727\Documents\MyRepositories\upper-imu-dc\Results\main_tracking\Case_25\kinematics.mot
datacolumns 10
datarows 37
range 1.70000000 2.06000000
endheader 
time	clav_prot	clav_elev	scapula_abduction	scapula_elevation	scapula_upward_rot	scapula_winging	plane_elv	shoulder_elv	axial_rot	
          1.70000000	        -21.52747303	         11.90232181	         -4.30971408	          3.86752323	         30.99287232	         -1.74839618	          2.55951704	          3.82128051	         33.24975301	
          1.71000000	        -21.72325278	         11.89659406	         -4.59889025	          3.83422059	         31.07989959	         -1.77588643	          2.58048076	          3.71955743	         33.27029120	
          1.72000000	        -21.76340211	         11.87149687	         -4.62045187	          3.80351673	         31.12933546	         -1.79272897	          2.59795223	          3.65426569	         33.26181077	
          1.73000000	        -21.76481928	         11.83810842	         -4.58305915	          3.77328018	         31.15795526	         -1.80348370	          2.62332783	          3.60543498	         33.24100018	
          1.74000000	        -21.74027466	         11.80623199	         -4.50736397	          3.74790773	         31.17556880	         -1.81057904	          2.66343351	          3.56052841	         33.21246143	
          1.75000000	        -21.70157301	         11.78379535	         -4.41372904	          3.73111649	         31.18888570	         -1.81569250	          2.72284432	          3.51097520	         33.17862584	
          1.76000000	        -21.65894437	         11.77287469	         -4.31715646	          3.72258556	         31.20398246	         -1.82063753	          2.80694804	          3.44970362	         33.14256814	
          1.77000000	        -21.63121293	         11.76974458	         -4.24540474	          3.71720902	         31.22726121	         -1.82765129	          2.92336620	          3.37012435	         33.10678682	
          1.78000000	        -21.66563322	         11.76894620	         -4.27899453	          3.70721997	         31.26390927	         -1.83878240	          3.07696325	          3.26746081	         33.07357858	
          1.79000000	        -21.64001940	         11.76189216	         -4.19300866	          3.69484311	         31.30715487	         -1.85197230	          3.25486787	          3.14962635	         33.02425822	
          1.80000000	        -21.76941147	         11.78139891	         -4.42246455	          3.69661927	         31.33139329	         -1.85882447	          3.41793708	          3.04459623	         32.92336344	
          1.81000000	        -21.76429274	         11.81880931	         -4.45437298	          3.72980837	         31.30347926	         -1.84814770	          3.51438986	          2.98959806	         32.71784206	
          1.82000000	        -21.71109121	         11.85532844	         -4.43062363	          3.77357698	         31.23400855	         -1.82466376	          3.57287250	          2.97623561	         32.41241863	
          1.83000000	        -21.67571141	         11.89386634	         -4.47292642	          3.82584003	         31.12501486	         -1.78925991	          3.58681428	          3.00228510	         32.00137140	
          1.84000000	        -21.63803626	         11.92448096	         -4.54166484	          3.88128743	         30.97320973	         -1.74132118	          3.55920418	          3.07224126	         31.48829999	
          1.85000000	        -21.59869771	         11.93440484	         -4.62964499	          3.93023719	         30.78075322	         -1.68229984	          3.50568029	          3.18376065	         30.89110980	
          1.86000000	        -21.56446654	         11.91649264	         -4.74241536	          3.96639339	         30.55150789	         -1.61385708	          3.44928666	          3.33097772	         30.23523944	
          1.87000000	        -21.53668851	         11.86806709	         -4.87703507	          3.98684771	         30.29017348	         -1.53755947	          3.41600898	          3.50606740	         29.55022090	
          1.88000000	        -21.51550198	         11.78857965	         -5.02824214	          3.98998491	         30.00292339	         -1.45524329	          3.43317489	          3.69947684	         28.86656210	
          1.89000000	        -21.49958343	         11.67886570	         -5.18843420	          3.97514465	         29.69643878	         -1.36877555	          3.52407119	          3.90171740	         28.21123372	
          1.90000000	        -21.48657423	         11.53915132	         -5.34731717	          3.94108484	         29.37812531	         -1.28027441	          3.70418396	          4.10390111	         27.60388273	
          1.91000000	        -21.47341817	         11.36814285	         -5.49249984	          3.88538712	         29.05563816	         -1.19202165	          3.97808743	          4.29869455	         27.05405914	
          1.92000000	        -21.45590093	         11.16238334	         -5.60897802	          3.80416960	         28.73613011	         -1.10623887	          4.33880396	          4.48123118	         26.56135324	
          1.93000000	        -21.42928959	         10.91584854	         -5.68137409	          3.69208335	         28.42475330	         -1.02457078	          4.76932556	          4.65052137	         26.11783860	
          1.94000000	        -21.39260631	         10.62024584	         -5.70313554	          3.54260927	         28.12326055	         -0.94747116	          5.24507664	          4.81042217	         25.71140323	
          1.95000000	        -21.35460007	         10.26692761	         -5.68847595	          3.34915273	         27.83000562	         -0.87381212	          5.73726276	          4.96864424	         25.32930360	
          1.96000000	        -21.33370456	          9.85007643	         -5.67338210	          3.10733588	         27.54033317	         -0.80057437	          6.21561090	          5.13502990	         24.96059724	
          1.97000000	        -21.35017438	          9.37095629	         -5.70279564	          2.81858185	         27.24660717	         -0.72280549	          6.65006515	          5.32001998	         24.59804523	
          1.98000000	        -21.41237822	          8.84340241	         -5.80759134	          2.49494594	         26.93808893	         -0.63436292	          7.01220760	          5.53302649	         24.23973667	
          1.99000000	        -21.48228380	          8.29810117	         -5.94291999	          2.16415445	         26.60125509	         -0.53001108	          7.27834308	          5.78000284	         23.89175540	
          2.00000000	        -21.38230119	          7.78168235	         -5.81764915	          1.87383404	         26.22183386	         -0.40989231	          7.43969210	          6.05865983	         23.57160502	
          2.01000000	        -23.13920669	          7.52881292	         -9.19277651	          1.67929867	         25.79269275	         -0.27939220	          7.52067577	          6.35223906	         23.31725814	
          2.02000000	        -22.55352007	          7.20191801	         -8.35044677	          1.58204536	         25.31333039	         -0.11019377	          7.50416925	          6.65146069	         23.23842387	
          2.03000000	        -22.40385945	          6.97561244	         -8.39059385	          1.55089189	         24.75555323	          0.06844129	          7.34309400	          6.98788116	         23.33788773	
          2.04000000	        -22.50117853	          6.79155351	         -8.95383379	          1.55804286	         24.10886952	          0.27171037	          7.02662419	          7.39296746	         23.53689380	
          2.05000000	        -21.75676426	          6.48859786	         -7.95159148	          1.52868530	         23.46125419	          0.47802125	          6.61882922	          7.78675086	         23.91802813	
          2.06000000	        -21.96217570	          6.14396270	         -8.60243527	          1.40312768	         22.85935369	          0.68131566	          6.14115240	          8.15739897	         24.39516445	
